<svg width="512" height="512" viewBox="0 0 512 512" fill="none" xmlns="http://www.w3.org/2000/svg">
<g clip-path="url(#clip0_1479_5106)">
<path d="M139.471 158.583C140.562 156.698 142.05 155.045 143.811 153.761C146.958 151.465 150.845 150.412 154.17 148.38C157.131 146.57 159.586 144.014 161.589 141.182C163.271 138.803 164.664 136.205 166.628 134.054C168.469 132.037 170.775 130.465 173.278 129.371C175.213 128.526 177.271 127.96 179.367 127.694C181.548 127.417 183.76 127.464 185.946 127.694C188.913 128.006 191.838 128.655 194.695 129.511C197.348 130.305 199.976 131.294 202.255 132.865C205.848 135.344 208.327 139.086 211.354 142.23C214.708 145.714 218.763 148.484 221.993 152.084C223.456 153.714 224.738 155.503 225.842 157.395C227.126 159.594 228.169 161.929 229.062 164.313C229.932 166.635 230.663 169.013 231.162 171.441C231.791 174.508 232.045 177.638 232.492 180.736C233.007 184.311 233.783 187.894 233.541 191.498C233.32 194.809 232.248 197.993 231.442 201.212C230.607 204.541 230.053 207.933 229.375 211.297C229.333 211.504 229.291 211.711 229.285 211.922C229.279 212.132 229.312 212.348 229.412 212.533C229.495 212.688 229.624 212.817 229.774 212.907C229.925 212.997 230.097 213.05 230.272 213.067C230.622 213.1 230.975 212.991 231.279 212.815C231.886 212.462 232.307 211.864 232.849 211.418C233.52 210.866 234.364 210.56 235.218 210.399C236.071 210.237 236.944 210.21 237.811 210.157C240.425 209.998 243.054 209.601 245.65 209.948C248.507 210.329 251.199 211.599 254.07 211.858C257.333 212.152 260.548 211.124 263.778 210.577C268.345 209.803 273.016 209.991 277.637 210.297C283.408 210.678 289.199 211.245 294.786 212.743C297.915 213.582 300.963 214.71 303.954 215.958C307.862 217.588 311.783 219.497 314.662 222.597C315.631 223.638 316.486 224.817 317.672 225.602C318.057 225.856 318.48 226.072 318.779 226.421C318.93 226.596 319.047 226.804 319.089 227.031C319.132 227.257 319.095 227.502 318.965 227.693C318.873 227.83 318.738 227.932 318.62 228.048C318.56 228.105 318.504 228.167 318.459 228.237C318.415 228.306 318.382 228.385 318.373 228.467C318.361 228.573 318.389 228.682 318.442 228.774C318.496 228.867 318.573 228.944 318.661 229.005C318.836 229.127 319.047 229.185 319.25 229.251C321.077 229.843 322.544 231.18 324.041 232.38C326.016 233.961 328.135 235.357 330.061 236.993C332.517 239.077 334.637 241.535 336.479 244.176C338.248 246.714 339.771 249.43 341.751 251.808C341.868 251.95 341.991 252.095 342.051 252.27C342.081 252.357 342.095 252.451 342.081 252.543C342.068 252.634 342.027 252.723 341.96 252.786C341.91 252.834 341.849 252.867 341.783 252.888C341.717 252.909 341.65 252.919 341.581 252.926C341.444 252.94 341.303 252.941 341.175 252.991C341.006 253.057 340.876 253.206 340.815 253.377C340.753 253.548 340.756 253.738 340.805 253.914C340.9 254.264 341.156 254.545 341.4 254.813C343.588 257.206 345.581 259.777 347.889 262.054C349.929 264.067 352.214 265.851 353.999 268.091C355.28 269.698 356.32 271.554 357.985 272.761C358.467 273.11 358.998 273.402 359.418 273.824C359.628 274.036 359.81 274.28 359.922 274.554C360.036 274.83 360.08 275.137 360.019 275.429C359.955 275.727 359.788 275.991 359.633 276.256C359.479 276.52 359.333 276.802 359.318 277.105C359.31 277.292 359.353 277.479 359.43 277.65C359.507 277.82 359.62 277.973 359.748 278.109C360.006 278.379 360.33 278.574 360.649 278.769C362.159 279.693 363.634 280.67 365.057 281.718C367.175 283.278 369.181 284.995 371.423 286.369C371.826 286.615 372.241 286.855 372.557 287.204C372.715 287.378 372.847 287.58 372.924 287.802C373 288.025 373.022 288.269 372.968 288.497C372.901 288.774 372.721 289.018 372.494 289.192C372.267 289.367 371.994 289.474 371.715 289.535C371.156 289.656 370.574 289.596 370.003 289.625C368.632 289.696 367.343 290.275 366.107 290.874C363.611 292.083 361.171 293.407 358.688 294.647C355.437 296.27 352.113 297.743 348.75 299.12C344.888 300.7 340.971 302.154 337.201 303.942C332.751 306.05 328.518 308.616 323.973 310.511C320.112 312.12 315.974 313.242 311.793 313.096C310.159 313.039 308.521 312.789 306.894 312.957C305.096 313.141 303.392 313.826 301.645 314.284C301.165 314.41 300.678 314.521 300.228 314.725C299.776 314.931 299.357 315.245 299.125 315.682C298.914 316.079 298.875 316.554 298.961 316.995C299.046 317.436 299.252 317.847 299.505 318.218C300.014 318.96 300.716 319.553 301.225 320.295C302.133 321.621 302.345 323.3 302.344 324.907C302.344 328.008 301.658 331.061 301.225 334.132C300.647 338.228 300.521 342.37 300.315 346.501C300.14 350.007 299.91 353.572 300.735 356.984C301.13 358.617 301.759 360.181 302.29 361.775C302.822 363.368 303.261 365.018 303.255 366.698C303.249 368.263 302.85 369.814 302.205 371.241C300.773 374.405 298.201 376.887 295.685 379.285C295.388 379.57 295.084 379.857 294.715 380.04C294.531 380.132 294.332 380.196 294.127 380.214C293.923 380.231 293.712 380.202 293.525 380.116C293.354 380.035 293.206 379.907 293.089 379.758C292.972 379.609 292.886 379.438 292.82 379.26C292.687 378.905 292.636 378.527 292.545 378.159C292.372 377.449 292.04 376.76 291.495 376.271C291.121 375.935 290.657 375.706 290.171 375.573C289.686 375.439 289.178 375.399 288.674 375.415C287.668 375.449 286.682 375.703 285.686 375.852C281.477 376.486 277.197 375.259 272.948 375.503C271.797 375.569 270.608 375.76 269.658 376.411C268.96 376.89 268.434 377.588 267.729 378.054C267.376 378.288 266.974 378.46 266.552 378.489C266.341 378.504 266.127 378.48 265.926 378.415C265.725 378.349 265.537 378.238 265.388 378.089C265.189 377.889 265.063 377.623 265.009 377.346C264.955 377.07 264.97 376.782 265.029 376.506C265.146 375.954 265.427 375.453 265.668 374.944C266.17 373.885 266.518 372.739 267.218 371.798C267.511 371.404 267.863 371.051 268.106 370.623C268.227 370.41 268.319 370.176 268.354 369.934C268.389 369.69 268.363 369.436 268.258 369.214C268.166 369.019 268.019 368.857 267.855 368.719C267.691 368.581 267.51 368.465 267.335 368.342C267.159 368.218 266.987 368.086 266.848 367.924C266.709 367.761 266.603 367.564 266.577 367.352C266.545 367.076 266.652 366.797 266.816 366.572C266.981 366.349 267.199 366.171 267.418 365.998C268.056 365.499 268.723 365.033 269.448 364.671C271.043 363.875 272.85 363.621 274.627 363.482C278.502 363.182 282.43 363.377 286.246 362.644C286.998 362.5 287.745 362.319 288.451 362.025C289.158 361.73 289.823 361.318 290.344 360.759C290.727 360.347 291.034 359.842 291.109 359.284C291.161 358.902 291.102 358.512 291.028 358.132C290.955 357.751 290.869 357.371 290.866 356.984C290.862 356.516 290.982 356.054 291.145 355.616C291.311 355.178 291.52 354.757 291.706 354.328C293.134 351.029 293.127 347.318 293.735 343.775C294.214 340.988 295.088 338.201 294.786 335.389C294.698 334.579 294.512 333.777 294.225 333.013C293.788 331.851 293.123 330.789 292.475 329.729C292.062 329.052 291.653 328.368 291.347 327.637C291.042 326.905 290.841 326.118 290.866 325.327C290.908 323.95 291.613 322.687 291.916 321.343C292.166 320.227 292.127 319.021 291.635 317.989C291.191 317.054 290.388 316.305 289.446 315.877C288.356 315.381 287.115 315.309 285.924 315.434C284.733 315.556 283.57 315.864 282.397 316.101C276.55 317.282 270.512 316.691 264.548 316.8C258.891 316.904 253.087 317.628 247.68 315.962C247.238 315.825 246.795 315.673 246.334 315.631C246.103 315.61 245.869 315.618 245.644 315.669C245.418 315.72 245.201 315.816 245.02 315.962C244.743 316.186 244.565 316.514 244.475 316.859C244.385 317.203 244.376 317.563 244.39 317.919C244.456 319.565 244.999 321.156 245.65 322.67C246.241 324.042 246.932 325.394 247.19 326.864C247.501 328.634 247.161 330.458 246.63 332.175C245.554 335.656 243.715 338.844 242.221 342.169C240.677 345.602 239.499 349.188 238.021 352.65C237.692 353.423 237.346 354.191 237.097 354.993C236.847 355.794 236.694 356.637 236.761 357.473C236.873 358.878 237.598 360.172 238.511 361.247C239.316 362.194 240.279 363.009 240.983 364.034C241.597 364.931 241.998 365.979 242.08 367.061C242.12 367.577 242.084 368.111 241.871 368.584C241.785 368.774 241.67 368.958 241.656 369.167C241.644 369.332 241.698 369.494 241.719 369.658C241.729 369.741 241.731 369.824 241.713 369.906C241.694 369.986 241.654 370.064 241.591 370.116C241.547 370.154 241.493 370.177 241.436 370.189C241.379 370.201 241.321 370.198 241.265 370.186C241.152 370.161 241.052 370.097 240.967 370.02C240.798 369.864 240.683 369.653 240.499 369.515C240.33 369.389 240.118 369.335 239.91 369.304C239.701 369.274 239.489 369.265 239.285 369.215C238.895 369.119 238.554 368.878 238.27 368.595C237.987 368.311 237.754 367.981 237.51 367.664C237.266 367.346 237.005 367.034 236.68 366.799C236.355 366.563 235.958 366.407 235.557 366.438C235.161 366.469 234.794 366.68 234.516 366.965C234.239 367.248 234.043 367.602 233.882 367.965C233.721 368.329 233.591 368.704 233.427 369.066C233.262 369.427 233.058 369.777 232.772 370.052C232.287 370.518 231.613 370.728 230.954 370.859C230.295 370.991 229.616 371.061 228.992 371.311C228.334 371.573 227.768 372.028 227.267 372.528C226.767 373.031 226.324 373.587 225.842 374.105C223.975 376.116 221.566 377.538 219.118 378.783C216.671 380.027 214.14 381.128 211.844 382.632C211.452 382.889 211.063 383.159 210.627 383.33C210.191 383.501 209.693 383.566 209.254 383.4C209.033 383.317 208.834 383.176 208.685 382.994C208.536 382.811 208.439 382.586 208.414 382.351C208.381 382.039 208.475 381.723 208.62 381.443C208.766 381.164 208.962 380.915 209.15 380.662C209.338 380.409 209.52 380.146 209.631 379.851C209.743 379.558 209.78 379.225 209.674 378.927C209.616 378.765 209.517 378.619 209.395 378.498C209.274 378.375 209.13 378.276 208.976 378.197C208.67 378.039 208.33 377.96 207.994 377.88C205.562 377.295 203.163 376.575 200.715 376.062C198.53 375.605 196.29 375.313 194.066 375.503C193.573 375.545 193.081 375.611 192.587 375.601C192.093 375.589 191.589 375.496 191.165 375.243C190.899 375.084 190.674 374.868 190.438 374.666C190.203 374.463 189.951 374.272 189.656 374.176C189.42 374.098 189.166 374.086 188.919 374.119C188.673 374.151 188.434 374.227 188.205 374.32C187.916 374.44 187.632 374.59 187.32 374.612C187.165 374.622 187.004 374.599 186.867 374.525C186.729 374.452 186.616 374.326 186.576 374.176C186.54 374.038 186.566 373.891 186.623 373.761C186.68 373.631 186.766 373.517 186.856 373.407C188.04 371.962 189.835 371.182 191.576 370.502C193.51 369.745 195.495 369.04 197.565 368.865C197.758 368.849 197.952 368.836 198.143 368.8C198.333 368.764 198.521 368.703 198.682 368.596C198.844 368.488 198.976 368.33 199.029 368.145C199.056 368.051 199.062 367.952 199.044 367.857C199.026 367.762 198.983 367.672 198.919 367.599C198.808 367.475 198.64 367.412 198.474 367.393C198.307 367.375 198.139 367.394 197.973 367.41C197.806 367.426 197.636 367.437 197.473 367.397C197.392 367.378 197.313 367.346 197.243 367.299C197.174 367.253 197.114 367.191 197.075 367.117C197.02 367.013 197.009 366.889 197.033 366.774C197.057 366.658 197.115 366.552 197.191 366.461C197.343 366.282 197.559 366.169 197.77 366.064C198.501 365.7 199.244 365.357 200.015 365.09C201.783 364.48 203.674 364.281 205.544 364.322C207.719 364.369 209.879 364.732 212.054 364.741C213.361 364.747 214.666 364.624 215.973 364.601C216.96 364.585 217.952 364.624 218.931 364.494C219.909 364.366 220.891 364.052 221.643 363.414C222.275 362.875 222.709 362.137 223.025 361.371C223.342 360.604 223.552 359.798 223.812 359.011C225.1 355.123 227.59 351.77 229.902 348.388C231.897 345.469 233.804 342.44 234.941 339.094C235.476 337.521 235.838 335.85 235.641 334.202C235.465 332.718 234.842 331.292 234.871 329.799C234.889 328.872 235.16 327.967 235.507 327.107C235.853 326.247 236.277 325.419 236.621 324.557C237.07 323.436 237.385 322.253 237.463 321.047C237.54 319.842 237.376 318.611 236.901 317.5C236.628 316.86 236.255 316.263 236.043 315.6C235.942 315.285 235.878 314.958 235.784 314.638C235.689 314.319 235.56 314.005 235.346 313.751C235.163 313.532 234.921 313.367 234.66 313.252C234.399 313.138 234.117 313.075 233.834 313.043C233.267 312.98 232.694 313.043 232.123 313.053C230.346 313.084 228.604 312.598 226.892 312.119C224.198 311.365 221.492 310.618 218.913 309.533C215.213 307.976 211.841 305.751 208.414 303.663C204.996 301.579 201.476 299.602 198.475 296.954C195.814 294.605 193.619 291.776 191.616 288.847C188.76 284.672 186.26 280.26 184.057 275.71C182.459 272.41 181.013 269.027 179.997 265.506C178.779 261.285 178.191 256.897 178.037 252.507C177.889 248.268 178.141 244.027 178.317 239.789C178.543 234.363 178.648 228.9 179.717 223.575C180.415 220.099 181.524 216.701 183.077 213.512C185.092 209.373 187.839 205.618 190.916 202.191C193.723 199.064 196.83 196.172 199.175 192.687C201.069 189.872 202.427 186.718 203.375 183.462C203.947 181.494 204.373 179.484 204.635 177.452C204.979 174.777 205.032 172.026 204.355 169.415C203.837 167.422 202.89 165.534 201.555 163.964C200.058 162.205 198.076 160.861 195.885 160.121C193.095 159.178 190.082 159.222 187.136 159.212C183.916 159.202 180.697 159.116 177.477 159.073C175.245 159.042 172.983 159.028 170.828 158.443C169.574 158.104 168.377 157.575 167.118 157.255C165.457 156.833 163.719 156.783 162.009 156.906C158.659 157.147 155.397 158.038 152.116 158.757C148.622 159.522 145.088 160.095 141.571 160.75C141.214 160.816 140.853 160.884 140.489 160.873C140.126 160.863 139.754 160.768 139.471 160.54C139.18 160.306 139.002 159.936 139.002 159.562C139.002 159.188 139.18 158.818 139.471 158.583H139.471" fill="#757575"/>
</g>
<defs>
<clipPath id="clip0_1479_5106">
<rect width="234" height="257" fill="white" transform="translate(139 127)"/>
</clipPath>
</defs>
</svg>
